<svg width="1024" height="538" viewBox="0 0 1024 538" fill="none" xmlns="http://www.w3.org/2000/svg">
<path d="M774.159 500.962C767.246 509.928 759.122 516.59 760.905 519.616C760.905 519.616 764.584 522.292 774.739 522.292C792.149 522.292 809.258 520.965 806.447 519.2C802.555 516.757 791.284 515.872 780.513 512.144C777.851 511.222 786.339 506.065 784.02 505.223C779.222 503.476 775.483 501.966 774.159 500.962Z" fill="#002E4F"/>
<path d="M953.536 519.083C953.536 519.083 955.823 522.293 964.603 522.293C979.656 522.293 995.346 520.248 992.918 518.722C989.552 516.613 963.167 511.105 963.167 511.105L957.252 503.757L947.219 509.309L953.536 519.083Z" fill="#002E4F"/>
<path d="M905.844 297.229C895.047 297.229 886.882 295.072 886.2 294.888C880.568 293.35 877.248 287.54 878.785 281.909C880.317 276.283 886.108 272.971 891.731 274.481C892.101 274.578 915.872 280.669 929.747 268.762C939.033 260.789 942.561 245.777 940.233 224.138L939.492 217.236L960.867 205.124C965.954 202.246 972.4 204.03 975.276 209.109C978.154 214.188 976.368 220.64 971.289 223.515L961.839 228.871C963.333 254.359 957.14 273.19 943.392 284.907C931.802 294.786 917.334 297.229 905.844 297.229Z" fill="#EEA566"/>
<path d="M942.427 238.574C942.025 253.948 937.942 265.072 930.192 271.717C914.971 284.782 888.903 278.12 888.456 278.002C882.276 276.335 875.922 279.981 874.238 286.153C872.552 292.335 876.196 298.716 882.379 300.405C883.129 300.604 892.103 305.082 903.946 304.661C948.922 303.064 976.067 264.267 976.569 241.648L942.427 238.574Z" fill="#FFF5EC"/>
<path d="M880.584 184.774C876.555 182.967 872.595 181.011 868.694 178.959C831.426 200.182 783.812 227.372 782.868 228.318C782.868 228.318 806.534 266 808.047 267.51C809.019 268.481 867.699 226.386 909.914 195.887C900.174 192.118 890.13 189.054 880.584 184.774Z" fill="#EEA566"/>
<path d="M881.193 183.689C890.952 187.994 901.204 191.118 911.125 195.017C934.367 178.22 952.333 165.149 952.333 165.149L912.608 153.986C912.608 153.986 893.493 164.837 869.94 178.246C873.636 180.176 877.38 182.005 881.193 183.689Z" fill="#EEA566"/>
<path d="M812.714 134.223L836.102 197.542L881.822 214.319L823.907 108.524L812.714 134.223Z" fill="#F3AD71"/>
<path d="M884.312 229.874H850.438L880.587 282.545L926.551 301.922L884.312 229.874Z" fill="#F3AD71"/>
<path d="M926.551 301.922L899.583 255.918L784.217 323.554L761.53 284.854L775.777 54.7709L827.621 24.3779L920.934 183.557L952.332 165.151L978.444 209.692L947.046 228.098L974.013 274.098L926.551 301.922ZM821.893 123.394L818.974 125.107L811.044 247.978L873.475 211.38L821.893 123.394Z" fill="#DC965A"/>
<path d="M723.179 274.323L761.53 284.853L784.217 323.553L743.693 313.288L723.179 274.323Z" fill="#EEA566"/>
<path d="M723.179 274.324L761.53 284.854L775.777 54.7706L740.589 46.3496L723.179 274.324Z" fill="#F3AD71"/>
<path d="M740.589 46.3496L775.777 54.7706L827.621 24.3776L791.988 14.0176L740.589 46.3496Z" fill="#EEA566"/>
<path d="M817.746 366.009C817.746 366.009 823.384 426.81 823.384 448.107C823.384 448.107 779.112 482.616 768.272 500.666C772.927 504.21 782.13 508.914 788.159 508.73C817.699 480.523 850.122 460.39 850.122 460.39C850.122 460.39 864.11 419.819 868.464 385.466L817.746 366.009Z" fill="#002E4F"/>
<path d="M849.302 368.878C859.271 368.948 869.458 367.232 878.032 362.577C875.154 350.434 881.285 314.609 888.983 295.465C888.983 295.465 895.054 282.135 890.798 278.04C875.049 262.893 861.646 264.134 857.479 263.966C843.022 276.169 816.123 312.182 817.201 359.777C824.63 367.583 839.718 368.814 849.302 368.878Z" fill="#FFF5EC"/>
<path d="M946.961 510.98C952.725 509.377 958.251 506.713 961.798 501.999C944.703 474.271 882.014 372.429 878.618 364.456C878.531 364.251 878.453 364.014 878.372 363.781C869.167 368.744 858.181 370.492 847.532 370.082C838.256 369.727 824.829 368.426 817.256 361.559C817.275 362.05 817.277 362.536 817.302 363.032C818.61 389.616 906.793 478.253 941.496 512.146C943.405 511.865 945.261 511.45 946.961 510.98Z" fill="#00396A"/>
<path d="M764.924 341.313C762.475 341.313 760.123 340.962 757.876 340.207C753.215 338.648 747.047 334.722 744.134 324.893C742.475 319.293 745.666 313.409 751.265 311.752C756.862 310.09 762.743 313.289 764.401 318.883C764.598 319.536 764.779 319.951 764.908 320.195C766.036 320.243 770.221 319.877 780.412 313.888C789.516 308.542 800.285 300.575 810.699 292.871C828.296 279.849 844.917 267.555 858.642 263.212C864.205 261.448 870.146 264.539 871.908 270.101C873.669 275.668 870.587 281.608 865.022 283.367C854.656 286.646 838.702 298.455 823.271 309.864C800.681 326.575 780.762 341.313 764.924 341.313Z" fill="#DC965A"/>
<path d="M784.7 333.41C783.405 327.185 782.049 320.312 778.107 315.198C769.586 319.919 765.946 320.237 764.907 320.194C764.778 319.951 764.597 319.536 764.4 318.882C762.742 313.288 756.861 310.089 751.264 311.751C745.665 313.407 742.474 319.292 744.133 324.892C747.046 334.721 753.214 338.648 757.875 340.206C760.122 340.962 762.474 341.312 764.923 341.312C771.065 341.312 777.821 339.089 785.11 335.4C784.973 334.737 784.838 334.074 784.7 333.41Z" fill="#DC965A"/>
<path d="M871.907 270.1C870.145 264.538 864.204 261.448 858.641 263.211C844.915 267.554 828.294 279.848 810.698 292.87C800.284 300.573 789.514 308.541 780.411 313.887C779.996 314.135 779.604 314.351 779.208 314.577C783.16 319.799 790 345.553 790.121 346.14C801.328 340.276 855.093 299.347 866.747 286.993C870.756 282.749 873.668 275.667 871.907 270.1Z" fill="#FFF5EC"/>
<path d="M749.976 332.772C749.35 332.772 748.719 332.584 748.171 332.195C739.877 326.267 735.551 314.857 735.37 314.378C734.771 312.771 735.586 310.98 737.196 310.375C738.8 309.781 740.592 310.591 741.193 312.198C741.234 312.301 745.055 322.329 751.785 327.136C753.182 328.134 753.506 330.075 752.509 331.468C751.901 332.319 750.946 332.772 749.976 332.772Z" fill="#DC965A"/>
<path d="M749.981 325.194C749.004 325.194 748.044 324.736 747.44 323.878C743.472 318.258 740.293 304.9 739.942 303.401C739.556 301.728 740.594 300.056 742.266 299.668C743.944 299.269 745.611 300.32 745.999 301.993C746.876 305.753 749.751 316.369 752.516 320.291C753.508 321.693 753.174 323.636 751.772 324.623C751.228 325.011 750.602 325.194 749.981 325.194Z" fill="#DC965A"/>
<path d="M754.27 323.446C753.042 323.446 751.88 322.717 751.389 321.508C748.541 314.528 747.43 299.887 747.384 299.267C747.257 297.557 748.541 296.069 750.254 295.939C751.975 295.798 753.455 297.099 753.585 298.809C753.876 302.763 755.09 314.123 757.145 319.163C757.795 320.754 757.032 322.566 755.444 323.214C755.058 323.37 754.661 323.446 754.27 323.446Z" fill="#DC965A"/>
<path d="M758.934 321.946C757.547 321.946 756.288 321.018 755.923 319.616C753.968 312.02 755.75 304.273 755.829 303.95C756.223 302.278 757.903 301.248 759.567 301.636C761.236 302.031 762.272 303.702 761.88 305.374C761.848 305.52 760.392 312.031 761.945 318.062C762.374 319.729 761.37 321.422 759.709 321.848C759.451 321.918 759.189 321.946 758.934 321.946Z" fill="#DC965A"/>
<path d="M883.921 286.995C882.496 286.995 881.051 286.687 879.678 286.04C874.71 283.694 872.587 277.76 874.937 272.797C877.391 267.603 881.823 262.283 882.322 261.69C885.869 257.493 892.139 256.964 896.34 260.508C900.536 264.047 901.07 270.315 897.537 274.517C896.291 275.996 893.939 279.146 892.925 281.298C891.225 284.891 887.648 286.995 883.921 286.995Z" fill="#DC965A"/>
<path d="M885.355 281.875C886.531 283.175 887.766 284.399 889.05 285.564C890.679 284.588 892.049 283.142 892.923 281.297C893.938 279.145 896.289 275.994 897.535 274.516C901.068 270.314 900.534 264.046 896.338 260.507C892.138 256.963 885.867 257.492 882.32 261.689C882.123 261.926 881.314 262.897 880.257 264.3C880.347 270.569 881.005 277.08 885.355 281.875Z" fill="#F3AD71"/>
<path d="M918.024 270.898C914.064 280.5 903.073 285.08 893.468 281.121C883.865 277.161 879.288 266.167 883.248 256.559L888.225 244.492C892.184 234.885 903.181 230.31 912.784 234.269C922.386 238.229 926.961 249.223 923.001 258.825L918.024 270.898Z" fill="#DC965A"/>
<path d="M885.353 255.157C883.824 261.619 874.54 259.548 871.055 256.171C866.251 251.526 863.384 238.38 874.028 239.081C866.362 227.509 892.364 214.958 895.093 228.331C897.124 224.881 899.2 221.782 903.724 221.491C906.98 221.283 912.682 223.803 912.209 227.792C917.045 223.97 924.088 224.267 928.873 228.129C930.402 229.367 933.161 232.117 931.78 234.124C931.022 235.23 927.103 235.57 925.793 235.969C928.056 234.944 937.32 237.011 935.497 240.862C934.647 242.658 930.113 241.046 928.786 240.662C928.786 240.662 928.773 241.083 928.786 241.067C933.736 243.78 935.775 246.531 935.182 252.692C934.91 255.524 933.569 260.876 930.201 261.28C928.474 261.485 926.481 260.395 926.511 258.588C930.646 262.715 924.79 273.763 919.569 268.315C917.522 266.179 918.508 262.597 920.451 260.752C917.363 258.978 910.663 249.585 915.429 247.072C913.201 247.126 902.884 243.625 906.167 240.658C907.032 244.1 902.771 248.555 899.381 246.786C901.489 251.376 895.286 254.802 891.475 254.964C893.808 257.899 886.618 261.383 884.422 257.127L885.353 255.157Z" fill="#00396A"/>
<path d="M531.969 217.617C531.969 217.617 525.933 194.507 555.88 189.017L553.598 216.786L531.969 217.617Z" fill="#F3AD71"/>
<path d="M411.971 275.97C405.414 275.97 399.318 274.643 393.697 271.984C366.493 259.129 363.469 220.508 363.356 218.871C362.946 213.045 367.335 207.993 373.158 207.583C378.971 207.178 384.017 211.548 384.441 217.36C385.032 225.131 389.474 246.645 402.774 252.892C413.757 258.049 430.793 252.8 452.045 237.706C456.803 234.324 463.403 235.446 466.783 240.204C470.163 244.967 469.043 251.565 464.283 254.947C444.573 268.942 427.06 275.97 411.971 275.97Z" fill="#CDE5E8"/>
<path d="M468.217 295.805C471.157 288.091 473.881 280.258 477.056 272.63C474.917 272.463 472.759 272.188 470.569 271.773C460.314 269.814 451.631 265.645 444.524 259.257C437.409 252.876 431.917 244.784 428.044 234.998C424.168 225.208 421.916 214.082 421.285 201.607C420.648 189.139 421.657 175.975 424.303 162.114C427.003 147.98 430.933 135.307 436.093 124.083C441.253 112.862 447.435 103.413 454.647 95.7433C461.854 88.0723 469.94 82.5823 478.906 79.2673C487.866 75.9563 497.477 75.2723 507.732 77.2323C515.85 78.7843 523.001 81.8463 529.223 86.3623C532.22 80.3833 535.441 74.5133 538.507 68.6583C542.129 61.7333 545.492 54.6813 548.713 47.5663C550.089 44.5223 551.281 41.3893 552.529 38.2833C542.136 32.3593 530.49 28.1553 517.579 25.6873C499.286 22.1943 482.067 22.8553 465.927 27.6703C449.779 32.4883 435.246 40.5503 422.313 51.8673C409.379 63.1843 398.405 77.3923 389.398 94.4793C380.384 111.574 373.873 130.654 369.851 151.712C365.827 172.776 364.845 192.913 366.927 212.121C368.998 231.329 373.964 248.575 381.816 263.863C389.668 279.151 400.203 292.012 413.441 302.434C425.762 312.144 440.278 318.844 456.99 322.544C460.948 313.72 464.775 304.851 468.217 295.805Z" fill="#F3AD71"/>
<path d="M611.373 136.885C609.293 117.678 604.333 100.426 596.484 85.1391C588.631 69.8511 578.088 56.9991 564.861 46.5691C561.298 43.7641 557.547 41.2181 553.619 38.9131C552.381 42.0171 551.197 45.1461 549.797 48.1771C546.515 55.2681 543.227 62.3461 539.591 69.2681C536.494 75.1591 533.244 81.0701 530.232 87.0941C531.303 87.9111 532.349 88.7611 533.361 89.6681C540.468 96.0551 546.03 104.153 550.044 113.967C554.058 123.781 556.396 134.857 557.057 147.191C557.715 159.526 556.696 172.756 553.998 186.889C551.352 200.75 547.433 213.36 542.249 224.715C537.061 236.077 530.791 245.577 523.443 253.221C516.093 260.865 507.94 266.351 498.979 269.658C492.371 272.102 485.49 273.116 478.34 272.722C474.823 281.067 471.861 289.66 468.654 298.109C465.479 306.464 461.913 314.659 458.242 322.81C459.068 322.982 459.89 323.155 460.723 323.317C479.011 326.812 496.224 326.149 512.37 321.332C528.51 316.52 543.051 308.455 555.984 297.138C568.921 285.821 579.887 271.617 588.899 254.522C597.908 237.438 604.427 218.356 608.451 197.295C612.473 176.235 613.444 156.096 611.373 136.885Z" fill="#F3AD71"/>
<path d="M493.021 334.294C474.731 330.799 458.968 323.834 445.738 313.412C432.5 302.99 421.965 290.13 414.115 274.842C406.261 259.554 401.298 242.308 399.224 223.096C397.144 203.892 398.126 183.754 402.148 162.69C406.169 141.632 412.681 122.554 421.697 105.459C430.703 88.3714 441.678 74.1624 454.612 62.8454C467.545 51.5294 482.078 43.4663 498.226 38.6473C514.366 33.8343 531.583 33.1723 549.876 36.6663C568.163 40.1593 583.92 47.1213 597.155 57.5453C610.388 67.9773 620.928 80.8293 628.78 96.1153C636.634 111.403 641.59 128.655 643.672 147.862C645.743 167.074 644.773 187.212 640.748 208.269C636.724 229.332 630.207 248.408 621.198 265.498C612.184 282.593 601.218 296.796 588.284 308.114C575.35 319.432 560.81 327.497 544.67 332.308C528.521 337.122 511.311 337.791 493.021 334.294ZM502.868 282.75C512.845 284.654 522.309 283.953 531.275 280.636C540.235 277.328 548.392 271.843 555.742 264.198C563.087 256.554 569.357 247.054 574.545 235.694C579.732 224.337 583.648 211.728 586.294 197.868C588.994 183.733 590.014 170.505 589.353 158.167C588.695 145.835 586.354 134.758 582.345 124.945C578.329 115.13 572.765 107.032 565.66 100.646C558.545 94.2644 550.005 90.1163 540.03 88.2103C529.773 86.2503 520.163 86.9354 511.205 90.2444C502.237 93.5604 494.153 99.0504 486.944 106.721C479.732 114.391 473.549 123.839 468.392 135.061C463.229 146.286 459.302 158.957 456.602 173.092C453.953 186.953 452.947 200.117 453.581 212.585C454.215 225.06 456.464 236.184 460.343 245.975C464.217 255.761 469.705 263.852 476.821 270.234C483.928 276.623 492.61 280.792 502.868 282.75Z" fill="#DC965A"/>
<path d="M679.488 179.075L680.295 217.934C680.295 217.934 669.199 227.878 659.257 217.934L662.922 174.171L679.488 179.075Z" fill="#00396A"/>
<path d="M633.72 489.057C633.086 488.555 628.754 486.537 628.156 486.036C625.831 489.521 624.204 491.441 621.407 494.333C628.259 500.305 626.497 507.561 626.497 507.561C626.497 507.561 621.65 511.731 619.754 512.669C613.709 515.647 602.56 519.784 602.56 519.784L630.64 521.985L651.468 500.65C644.085 496.528 638.426 492.779 633.72 489.057Z" fill="#002E4F"/>
<path d="M523.699 490.578C519.226 489.797 513.582 493.222 509.943 490.578C509.099 498.39 509.261 502.651 509.261 502.651L467.715 519.784H520.773C521.251 514.131 520.236 508.704 521 503.466C521.388 500.774 523.211 493.172 523.699 490.578Z" fill="#002E4F"/>
<path d="M572.063 302.014L525.117 391.217C525.117 391.217 544.138 407.309 562.868 412.671L598.061 307.57L572.063 302.014Z" fill="#FFF5EC"/>
<path d="M623.467 496.566C626.283 493.685 628.609 490.25 630.925 486.759C618.782 476.353 612.84 465.628 596.338 447.174C589.512 439.535 607.597 395.797 611.987 388.46C619.877 375.276 621.095 365.717 627.264 343.152L581.416 360.279C570.503 399.373 557.788 438.472 570.535 457.121C584.006 476.838 607.911 492.719 619.447 500.649C619.888 500.952 623.084 496.275 623.467 496.566Z" fill="#002E4F"/>
<path d="M546.267 213.028C545.639 213.028 545.007 212.839 544.457 212.445C543.062 211.445 542.744 209.5 543.745 208.108C547.437 202.962 548.249 198.727 548.257 198.685C548.568 197.005 550.172 195.88 551.863 196.178C553.547 196.479 554.671 198.073 554.383 199.758C554.342 199.983 553.379 205.348 548.797 211.731C548.189 212.578 547.235 213.028 546.267 213.028Z" fill="#DC965A"/>
<path d="M624.009 352.603C637.657 315.133 649.31 256.333 653.674 232.868C651.236 231.854 648.843 231.093 646.944 230.564C642.896 229.448 638.044 228.13 633.892 229.42C631.786 230.078 629.909 231.163 628.069 232.317C626.367 237.409 625.666 241.703 625.666 241.703C625.666 241.703 596.353 297.741 577.254 335.956C593.474 339.592 609.336 344.921 624.009 352.603Z" fill="#FFBF88"/>
<path d="M576.702 337.105C576.694 337.1 576.688 337.1 576.681 337.094C574.99 340.482 573.382 343.724 571.891 346.761C571.888 346.761 571.877 346.761 571.877 346.761C568.12 353.418 564.071 359.573 560.149 365.486C522.428 422.36 508.184 467.689 505.668 489.143C509.269 491.954 522.89 493.545 527.43 494.332C534.388 458.771 552.497 436.071 584.943 409.25C595.799 400.274 603.921 388.87 611.057 379.402C615.311 373.759 619.533 364.714 623.583 353.757C608.878 346.049 592.953 340.73 576.702 337.105Z" fill="#00396A"/>
<path d="M540.098 352.75C535.718 352.75 531.623 350.009 530.111 345.64C528.199 340.121 531.12 334.101 536.635 332.192C549.46 327.747 569.129 310.214 582.391 291.41C609.304 253.249 628.199 232.092 628.992 231.207C632.889 226.863 639.573 226.499 643.919 230.398C648.261 234.293 648.625 240.977 644.728 245.319C644.542 245.529 625.796 266.541 599.668 303.59C586.578 322.153 563.433 345.273 543.56 352.162C542.415 352.56 541.247 352.75 540.098 352.75Z" fill="#DC965A"/>
<path d="M646.251 236.369C646.008 236.369 645.763 236.358 645.515 236.342C640.036 235.937 635.92 231.174 636.32 225.692C636.741 219.963 638.958 213.403 639.212 212.672C641.006 207.48 646.667 204.722 651.862 206.517C657.051 208.308 659.807 213.964 658.022 219.156C657.396 220.985 656.336 224.772 656.164 227.142C655.78 232.377 651.416 236.363 646.251 236.369Z" fill="#DC965A"/>
<path d="M649.164 225.875C650.922 227.896 652.843 229.696 654.876 231.341C655.591 230.09 656.05 228.672 656.163 227.143C656.336 224.772 657.395 220.985 658.021 219.157C659.806 213.965 657.05 208.309 651.861 206.518C647.553 205.029 642.93 206.68 640.451 210.246C641.369 215.863 645.957 222.193 649.164 225.875Z" fill="#F3AD71"/>
<path d="M674.796 204.336C674.564 214.719 665.957 222.948 655.569 222.716C645.185 222.481 636.956 213.874 637.19 203.49L637.482 190.437C637.713 180.05 646.323 171.82 656.708 172.055C667.092 172.29 675.321 180.894 675.09 191.281L674.796 204.336Z" fill="#DC965A"/>
<path d="M525.172 349.831C520.834 349.831 515.871 348.666 510.318 346.33C508.737 345.667 507.993 343.844 508.656 342.263C509.323 340.677 511.143 339.933 512.726 340.596C520.91 344.037 527.423 344.529 531.569 342.02C533.042 341.13 534.949 341.605 535.839 343.073C536.727 344.54 536.257 346.45 534.787 347.34C532.041 349 528.829 349.831 525.172 349.831Z" fill="#DC965A"/>
<path d="M528.896 354.351C523.95 354.351 519.979 353.391 515.463 352.296L514.064 351.961C512.394 351.562 511.364 349.884 511.766 348.212C512.162 346.545 513.843 345.504 515.513 345.914L516.926 346.254C524.465 348.077 529.449 349.285 540.473 346.438C542.146 346.011 543.831 347.009 544.26 348.671C544.689 350.337 543.689 352.031 542.027 352.463C536.713 353.833 532.54 354.351 528.896 354.351Z" fill="#DC965A"/>
<path d="M524.959 343.708C515.2 343.708 508.514 337.703 508.179 337.395C506.914 336.236 506.827 334.272 507.987 333.004C509.144 331.741 511.102 331.655 512.37 332.805C512.68 333.085 519.83 339.386 529.449 336.909C531.122 336.477 532.807 337.481 533.236 339.142C533.665 340.804 532.664 342.503 531 342.929C528.889 343.476 526.862 343.708 524.959 343.708Z" fill="#DC965A"/>
<path d="M531.475 340.369C531.354 340.369 531.233 340.358 531.112 340.348C520.522 339.108 516.217 331.485 516.04 331.161C515.214 329.656 515.765 327.767 517.269 326.937C518.763 326.117 520.643 326.656 521.477 328.145C521.623 328.399 524.56 333.318 531.831 334.17C533.538 334.37 534.758 335.912 534.558 337.617C534.375 339.198 533.031 340.369 531.475 340.369Z" fill="#DC965A"/>
<path d="M568.627 217.514C568.46 217.514 568.29 217.5 568.117 217.471C562.971 216.619 548.893 214.405 545.622 214.405C543.904 214.405 542.512 213.013 542.512 211.295C542.512 209.579 543.905 208.185 545.622 208.185C549.997 208.185 567.186 211.014 569.131 211.338C570.825 211.619 571.974 213.218 571.691 214.912C571.44 216.432 570.121 217.514 568.627 217.514Z" fill="#DC965A"/>
<path d="M566.637 224.041C566.366 224.041 566.089 224.006 565.817 223.93C565.669 223.89 550.885 219.866 544.007 219.474C542.291 219.377 540.983 217.907 541.08 216.194C541.177 214.478 542.658 213.127 544.359 213.267C551.89 213.696 566.825 217.761 567.456 217.934C569.112 218.387 570.086 220.094 569.633 221.75C569.258 223.135 568.004 224.041 566.637 224.041Z" fill="#DC965A"/>
<path d="M565.14 230.877C564.822 230.877 564.5 230.829 564.185 230.731C550.186 226.212 546.737 225.934 544.883 225.786C544.079 225.721 543.324 225.659 542.291 225.387C540.632 224.948 539.643 223.248 540.079 221.587C540.521 219.928 542.221 218.941 543.883 219.375C544.376 219.507 544.733 219.537 545.379 219.588C547.634 219.769 551.405 220.073 566.094 224.813C567.726 225.339 568.624 227.092 568.098 228.727C567.672 230.041 566.453 230.877 565.14 230.877Z" fill="#DC965A"/>
<path d="M558.989 235.856C558.917 235.856 558.841 235.851 558.765 235.845C544.744 234.842 544.162 227.232 544.143 226.366L550.361 226.22C550.361 226.22 550.369 226.147 550.344 226.018C550.35 226.05 550.991 229.058 559.21 229.647C560.92 229.766 562.209 231.255 562.088 232.965C561.97 234.604 560.607 235.856 558.989 235.856Z" fill="#DC965A"/>
<path d="M547.251 232.123C547.251 232.123 544.554 230.877 540.349 230.877C536.813 230.877 532.009 224.877 532.009 218.652C532.009 218.652 530.283 200.296 549.66 208.599L547.251 232.123Z" fill="#DC965A"/>
<path d="M608.273 286.688L581.107 420.439C581.107 420.439 623.178 430.576 648.983 415.713L655.509 229.873C655.51 229.874 626.634 219.769 608.273 286.688Z" fill="#FFF5EC"/>
<path d="M614.563 360.28L640.585 358.883C640.585 358.883 641.209 398.678 625.664 397.125C625.665 397.125 604.395 401.774 614.563 360.28Z" fill="white"/>
<path d="M647.238 226.695C644.382 224.133 640.697 222.722 636.861 222.722C632.451 222.722 628.23 224.602 625.29 227.882C624.495 228.772 605.484 250.033 578.329 288.539C576.551 291.059 574.596 293.632 572.514 296.188L569.752 299.576L572.762 302.748C575.966 306.136 579.329 309.437 582.58 312.626C584.344 314.357 586.107 316.089 587.85 317.837L591.692 321.689L595.184 317.519C598.302 313.802 601.177 310.08 603.735 306.46C629.701 269.637 648.248 248.852 648.433 248.642C654.15 242.265 653.614 232.415 647.238 226.695Z" fill="#FFF5EC"/>
<path d="M592.708 323.883L565.353 299.306L575.855 287.622L603.211 312.194L592.708 323.883Z" fill="#F8FDFF"/>
<path d="M618.31 211.801L642.213 221.169C642.213 221.169 652.376 171.715 644.959 164.299C644.959 164.298 618.31 161.775 618.31 211.801Z" fill="#00396A"/>
<path d="M646.34 172.911C647.187 174.172 665.733 186.548 680.295 183.124C680.295 183.124 677.806 161.263 643.813 164.413L646.34 172.911Z" fill="#00396A"/>
<path d="M650.266 206.62C656.007 206.62 660.66 201.966 660.66 196.226C660.66 190.486 656.007 185.832 650.266 185.832C644.526 185.832 639.872 190.486 639.872 196.226C639.872 201.966 644.526 206.62 650.266 206.62Z" stroke="#DDDD67" stroke-width="0.8679" stroke-miterlimit="10"/>
<path d="M675.094 207.303C680.086 207.303 684.134 203.255 684.134 198.263C684.134 193.27 680.086 189.223 675.094 189.223C670.101 189.223 666.054 193.27 666.054 198.263C666.054 203.255 670.101 207.303 675.094 207.303Z" stroke="#DDDD67" stroke-width="0.755" stroke-miterlimit="10"/>
<path d="M660.659 196.226C660.659 196.226 664.109 194.876 666.164 196.932" stroke="#DDDD67" stroke-width="0.8679" stroke-miterlimit="10"/>
<path d="M358.25 214.431C358.007 214.431 357.765 214.42 357.517 214.401C352.036 214.002 347.92 209.233 348.319 203.754C348.74 198.026 350.957 191.465 351.211 190.737C353.002 185.544 358.666 182.784 363.861 184.579C369.05 186.371 371.807 192.027 370.022 197.217C369.396 199.049 368.336 202.834 368.164 205.206C367.78 210.439 363.416 214.428 358.25 214.431Z" fill="#F3AD71"/>
<path d="M352.343 490.519C368.821 498.124 382.342 497.968 383.431 498.124C394.174 479.007 426.538 427.235 397.095 384.749L355.452 362.367C355.453 362.368 397.096 405.815 352.343 490.519Z" fill="#002E4F"/>
<path d="M373.899 507.441C373.899 507.441 377.746 499.635 380.75 494.392C378.495 494.117 368.41 493.706 364.267 492.116C360.378 500.056 351.906 511.692 345.921 519.671H401.878L373.899 507.441Z" fill="#002E4F"/>
<path d="M443.122 387.236C436.163 373.728 385.617 333.048 381.037 309.685C380.632 307.619 380.285 305.494 379.985 303.32C371.866 307.614 361.328 308.779 352.978 309.205C343.508 309.685 337.847 310.273 328.682 305.812C329.458 320.312 327.099 334.311 335.557 349C352.345 378.142 408.126 403.097 414.349 412.726C426.619 431.725 430.861 472.966 435.039 498.125C441.606 498.125 457.178 497.84 463.579 495.568C461.417 482.665 464.923 429.556 443.122 387.236Z" fill="#00396A"/>
<path d="M460.543 505.182C460.543 505.182 458.728 497.824 458.183 494.393C451.78 496.642 448.055 494.376 441.468 494.393C442.466 500.634 441.727 512.297 442.304 519.143H495.362L460.543 505.182Z" fill="#002E4F"/>
<path d="M353.366 316.838C361.447 316.466 378.421 314.216 385.231 307.408C383.836 296.317 378.879 278.471 380.624 264.112C386.541 215.423 362.768 200.83 362.768 200.83C362.768 200.83 351.823 193.175 342.952 202.316C329.579 216.092 316.53 255.045 317.838 312.63C327.057 317.388 343.677 317.281 353.366 316.838Z" fill="#FFF5EC"/>
<path d="M475.292 332.207C474.502 332.207 473.698 332.121 472.894 331.933C434.582 323.042 402.138 300.089 379.065 265.548C361.775 239.671 355.804 216.446 355.556 215.47C354.129 209.808 357.563 204.065 363.224 202.64C368.88 201.212 374.62 204.639 376.052 210.291C376.162 210.714 381.667 231.606 397.042 254.403C417.328 284.472 444.454 303.633 477.67 311.342C483.358 312.658 486.898 318.338 485.578 324.025C484.446 328.906 480.098 332.207 475.292 332.207Z" fill="#DC965A"/>
<path d="M452.003 300.45C430.895 290.454 412.923 274.61 398.59 253.356C383.402 230.839 377.91 210.032 377.861 209.832C376.461 204.309 371.507 200.45 365.815 200.45C364.793 200.45 363.765 200.578 362.767 200.83C359.547 201.64 356.833 203.658 355.131 206.509C353.426 209.36 352.935 212.705 353.747 215.925L353.798 216.154C355.433 223.269 361.968 248.296 377.512 271.557C396.118 299.413 421.361 320.263 450.513 331.862C450.734 331.948 450.969 331.992 451.203 331.992C451.57 331.992 451.937 331.884 452.25 331.668C452.76 331.322 453.067 330.745 453.067 330.125V302.133C453.069 301.41 452.654 300.757 452.003 300.45Z" fill="#FFF5EC"/>
<path d="M483.143 332.961C479.755 332.961 476.16 332.583 472.362 331.822C470.676 331.488 469.587 329.847 469.921 328.165C470.258 326.482 471.893 325.387 473.581 325.727C482.838 327.578 490.56 326.903 496.537 323.72C498.053 322.911 499.935 323.489 500.742 325.004C501.549 326.519 500.974 328.402 499.458 329.206C494.763 331.709 489.304 332.961 483.143 332.961Z" fill="#DC965A"/>
<path d="M483.583 326.003C482.102 326.003 480.578 325.905 479.03 325.679C477.331 325.431 476.155 323.851 476.403 322.152C476.651 320.453 478.224 319.277 479.928 319.525C489.87 320.981 499.075 315.819 499.17 315.764C500.661 314.917 502.558 315.43 503.41 316.919C504.263 318.407 503.753 320.301 502.266 321.158C501.875 321.38 493.716 326.003 483.583 326.003Z" fill="#DC965A"/>
<path d="M480.824 319.886C480.341 319.886 479.847 319.869 479.343 319.837C477.628 319.73 476.327 318.257 476.435 316.541C476.543 314.825 478.021 313.525 479.734 313.634C487.089 314.087 490.949 309.62 490.984 309.577C492.066 308.239 494.026 308.039 495.357 309.123C496.69 310.202 496.894 312.16 495.81 313.493C495.588 313.769 490.501 319.886 480.824 319.886Z" fill="#DC965A"/>
<path d="M470.072 314.641C468.357 314.641 466.962 313.249 466.962 311.535C466.962 309.825 468.346 308.432 470.056 308.428C470.334 308.422 476.473 308.282 479.985 303.222C480.964 301.809 482.901 301.463 484.311 302.44C485.721 303.417 486.072 305.353 485.093 306.767C479.688 314.555 470.461 314.641 470.072 314.641Z" fill="#DC965A"/>
<path d="M459.909 244.477C458.941 244.477 457.986 244.029 457.379 243.183C452.794 236.796 451.831 231.433 451.79 231.207C451.498 229.519 452.634 227.91 454.328 227.619C456.011 227.325 457.624 228.46 457.918 230.156C457.923 230.177 458.738 234.412 462.431 239.558C463.431 240.955 463.113 242.897 461.716 243.895C461.171 244.288 460.535 244.477 459.909 244.477Z" fill="#DC965A"/>
<path d="M460.559 245.852C460.365 245.852 460.165 245.836 459.969 245.798C453.169 244.492 439.675 244.476 439.537 244.476C437.821 244.476 436.43 243.084 436.43 241.369C436.43 239.654 437.822 238.262 439.537 238.262C440.114 238.262 453.759 238.278 461.139 239.692C462.825 240.01 463.931 241.639 463.607 243.328C463.324 244.816 462.019 245.852 460.559 245.852Z" fill="#DC965A"/>
<path d="M437.832 252.326C436.287 252.326 434.946 251.171 434.749 249.601C434.539 247.896 435.747 246.343 437.452 246.133C439.426 245.884 456.888 243.759 462.536 244.763C464.227 245.059 465.352 246.673 465.053 248.367C464.754 250.055 463.136 251.188 461.449 250.881C457.889 250.255 445.311 251.421 438.22 252.299C438.088 252.315 437.959 252.326 437.832 252.326Z" fill="#DC965A"/>
<path d="M441.873 259.354C440.414 259.354 439.111 258.324 438.825 256.835C438.499 255.147 439.605 253.517 441.29 253.193C448.821 251.742 450.83 251.1 454.477 249.924C456.184 249.374 458.31 248.694 461.479 247.772C463.125 247.297 464.853 248.247 465.331 249.892C465.809 251.543 464.859 253.269 463.208 253.744C460.127 254.64 458.137 255.282 456.381 255.843C452.631 257.051 450.366 257.78 442.466 259.301C442.267 259.338 442.067 259.354 441.873 259.354Z" fill="#DC965A"/>
<path d="M448.57 264.296C447.084 264.296 445.768 263.228 445.509 261.712C445.22 260.018 446.359 258.411 448.05 258.125C458.119 256.399 460.126 252.645 460.136 252.606C460.676 250.972 462.431 250.087 464.063 250.627C465.692 251.166 466.577 252.925 466.04 254.554C465.641 255.757 462.957 261.88 449.099 264.254C448.92 264.28 448.745 264.296 448.57 264.296Z" fill="#DC965A"/>
<path d="M460.554 260.552L458.183 235.214C458.183 235.214 469.298 236.023 469.274 247.67C469.266 251.56 468.146 255.891 460.554 260.552Z" fill="#DC965A"/>
<path d="M390.593 178.007C393.398 188.612 387.073 199.49 376.465 202.294C365.854 205.101 354.979 198.778 352.171 188.169L348.643 174.833C345.838 164.224 352.163 153.347 362.771 150.541C373.382 147.733 384.257 154.059 387.065 164.668L390.593 178.007Z" fill="#DC965A"/>
<path d="M388.729 170.957C387.221 175.166 385.083 179.334 381.803 182.169C373.805 189.071 361.541 190.932 351.809 186.795L352.171 188.169C354.979 198.779 365.854 205.101 376.465 202.294C387.073 199.49 393.398 188.612 390.593 178.007L388.729 170.957Z" fill="#00396A"/>
<path d="M352.111 187.436C344.648 182.644 336.589 164.431 348.378 160.444C355.671 157.978 352.734 180.459 352.734 186.815L352.111 187.436Z" fill="#00396A"/>
<path d="M346.121 161.945C337.101 155.411 348.279 136.921 370.566 136.921C384.341 136.921 384.241 147.474 374.714 153.171C366.808 157.897 354.549 155.129 348.61 163.187L346.121 161.945Z" fill="#00396A"/>
<path d="M388.724 175.034C385.566 170.245 379.343 160.543 376.924 155.081C375.389 151.611 373.285 145.695 380.236 149.898C386.054 153.415 389.213 165.815 388.665 172.1L388.724 175.034Z" fill="#00396A"/>
<path d="M231.229 219.242C227.798 222.416 224.022 225.375 220.928 228.914L176.052 322.658L209.46 279.536L244.942 206.188C240.405 210.574 235.863 214.958 231.229 219.242Z" fill="#F3AD71"/>
<path d="M204.613 203.852C207.868 199.4 211 194.169 214.703 189.569L136.154 151.218L61.627 158.68L192.211 218.897C196.494 214.015 200.799 209.071 204.613 203.852Z" fill="#EEA566"/>
<path d="M215.823 190.115C211.647 195.34 208.26 201.486 204.252 206.365C200.654 210.745 197.042 215.118 193.35 219.423L252.716 246.796L274.27 218.651L215.823 190.115Z" fill="#EEA566"/>
<path d="M126.428 298.901L149.454 250.803L28.8311 193.062L48.2031 152.601L246.838 35.6182L301.042 61.5672L221.368 227.992L254.196 243.71L231.903 290.275L199.075 274.561L176.052 322.658L126.428 298.901ZM215.785 112.245L212.732 110.783L106.474 172.988L171.747 204.238L215.785 112.245Z" fill="#DC965A"/>
<path d="M254.196 243.709L274.269 218.651L258.517 253.576L231.162 291.786L254.196 243.709Z" fill="#F3AD71"/>
<path d="M246.509 204.792L324.84 33.084L301.043 61.567L221.369 227.992C223.591 225.851 245.241 206.061 246.509 204.792Z" fill="#F3AD71"/>
<path d="M48.2031 152.602L83.5991 121.789L277.689 10.3906L246.838 35.6186L48.2031 152.602Z" fill="#F3AD71"/>
<path d="M246.838 35.6186L301.042 61.5666L324.839 33.0836L277.689 10.3906L246.838 35.6186Z" fill="#EEA566"/>
<path d="M180.316 161.036C173.649 156.297 169.058 158.371 165.856 158.868C162.35 159.41 159.755 157.496 159.742 157.487C158.302 156.553 156.376 156.964 155.443 158.404C154.507 159.843 154.92 161.77 156.36 162.703C156.506 162.799 159.219 164.523 163.958 165.767C158.787 170.479 153.517 176.17 153.223 176.489C152.058 177.748 152.136 179.716 153.398 180.881C153.994 181.434 154.752 181.707 155.505 181.707C156.343 181.707 157.177 181.371 157.789 180.707C157.849 180.644 161.522 176.68 165.624 172.728C161.816 177.494 158.242 182.45 157.589 183.363C156.588 184.759 156.909 186.701 158.303 187.702C158.851 188.096 159.485 188.283 160.113 188.283C161.079 188.283 162.033 187.834 162.64 186.987C164.674 184.148 167.546 180.309 170.286 176.864C169.266 178.88 167.972 181.163 165.38 185.336C164.474 186.796 164.919 188.711 166.378 189.618C166.888 189.935 167.457 190.086 168.015 190.086C169.056 190.086 170.07 189.567 170.661 188.617C171.726 186.9 172.587 185.48 173.307 184.257C172.765 185.608 173.231 187.194 174.496 188.018C175.019 188.359 175.607 188.521 176.19 188.521C177.207 188.521 178.202 188.022 178.798 187.106C181.711 182.625 183.124 178.965 183.731 176.085L183.858 176.181C185.589 167.442 183.485 163.289 180.316 161.036ZM174.088 182.909C175.115 181.102 175.819 179.736 176.478 178.375C175.919 179.698 175.14 181.209 174.088 182.909Z" fill="#DC965A"/>
<path d="M85.1009 196.295C75.2589 195.738 60.9759 215.004 75.5879 220.248C62.3599 219.935 59.1239 238.634 71.2509 243.796C50.0159 239.664 52.4859 267.181 62.5309 277.139C55.7229 276.049 48.8429 282.555 49.8729 289.638C50.9119 296.77 53.7379 306.658 71.3839 311.955C89.0319 317.252 99.8179 307.332 108.598 297.977C114.219 309.462 142.003 293.942 138.923 280.203C149.407 283.92 158.802 272.019 159.012 262.514C159.217 253.236 152.719 246.153 146.54 240.127C150.894 236.141 151.719 228.749 150.572 223.101C148.668 213.718 136.919 212.784 136.919 205.317C136.919 202.704 137.42 194.585 135.193 191.019C131.649 185.344 125.477 179.727 117.715 182.5C85.1009 167.03 85.1009 196.295 85.1009 196.295Z" fill="#00396A"/>
<path d="M104.116 498.125C95.1482 496.561 93.6992 497.009 84.8392 494.846L64.3242 519.919H143.908L97.6912 507.484L104.116 498.125Z" fill="#002E4F"/>
<path d="M252.3 505.31L247.596 499.133C243.35 501.879 238.932 504.226 234.137 505.893L246.703 519.918H293.336L252.3 505.31Z" fill="#002E4F"/>
<path d="M76.4131 498.206C85.3281 500.391 94.2421 502.662 103.267 504.194L168.985 423.341L157.794 391.217L111.782 338.162L125.036 413.35L76.4131 498.206Z" fill="#002E4F"/>
<path d="M165.792 315.9C147.761 311.115 123.316 317.168 105.773 323.787C105.773 323.787 116.532 366.624 123.596 379.403C144.168 416.609 233.144 509.469 233.144 509.469C238.029 507.808 247.445 500.913 251.755 498.124L165.792 315.9Z" fill="#00396A"/>
<path d="M103.388 340.542C120.799 334.004 155.725 322.978 173.648 327.455C173.648 327.455 149.912 271.703 139.14 259.404C131.868 251.107 92.1699 227.748 92.1699 258.287C92.1699 300.131 103.388 340.542 103.388 340.542Z" fill="#FFF5EC"/>
<path d="M118.865 255.68C118.633 255.761 118.401 255.831 118.158 255.901C112.855 257.331 107.396 254.191 105.964 248.888C104.467 243.343 104.397 236.416 104.392 235.645C104.368 230.148 108.805 225.677 114.299 225.656C119.791 225.632 124.26 230.062 124.29 235.548C124.304 237.485 124.554 241.406 125.172 243.699C126.539 248.77 123.739 253.975 118.865 255.68Z" fill="#DC965A"/>
<path d="M125.5 245.846C125.465 245.134 125.365 244.417 125.171 243.699C124.553 241.407 124.303 237.485 124.289 235.548C124.259 230.062 119.79 225.631 114.298 225.656C108.804 225.677 104.367 230.148 104.391 235.645C104.391 235.769 104.396 236.071 104.404 236.486C109.309 242.021 117.387 244.626 125.5 245.846Z" fill="#F3AD71"/>
<path d="M135.229 216.022C138.439 225.902 133.031 236.509 123.151 239.724C113.271 242.928 102.66 237.523 99.4502 227.644L95.4182 215.226C92.2082 205.346 97.6162 194.735 107.493 191.526C117.373 188.315 127.984 193.722 131.194 203.603L135.229 216.022Z" fill="#DC965A"/>
<path d="M94.997 225.209C101.527 221.061 103.782 213.287 103.064 205.515C108.79 209.365 113.319 207.016 116.896 200.402C127.744 215.604 144.278 192.987 121.732 184.797C103.698 178.246 86.0239 196.081 90.6439 214.015L94.997 225.209Z" fill="#00396A"/>
<path d="M246.007 206.04C245.613 205.708 245.157 205.506 244.688 205.401C245.141 204.906 245.626 204.373 246.193 203.761C247.356 202.497 247.275 200.531 246.012 199.367C245.856 199.224 245.691 199.1 245.516 198.995C246.384 197.75 246.239 196.028 245.098 194.96C244.214 194.134 242.984 193.935 241.918 194.318C243.334 192.887 244.216 191.893 244.321 191.772C245.456 190.484 245.332 188.519 244.043 187.384C242.756 186.25 240.79 186.372 239.657 187.663C239.584 187.743 232.825 195.362 225.874 199.326C222.859 194.766 218.813 193.168 218.581 193.079C216.987 192.475 215.226 193.274 214.602 194.86C213.981 196.446 214.772 198.242 216.35 198.882C216.488 198.937 218.864 199.945 220.711 202.787C220.455 203.491 220.158 204.49 219.988 205.662C174.238 267.586 113.574 245.604 110.825 244.563C105.39 242.48 99.2893 245.178 97.1823 250.61C95.0703 256.053 97.7733 262.176 103.216 264.285C103.955 264.571 118.806 270.219 139.987 270.219C144.246 270.219 148.764 269.991 153.47 269.441C176.307 266.793 210.085 253.636 237.079 218.854C237.521 218.601 238.147 218.212 238.973 217.611C239.529 217.252 240.09 216.859 240.661 216.383L240.588 216.329C242.185 214.986 244.154 213.084 246.39 210.416C247.496 209.101 247.324 207.14 246.007 206.04Z" fill="#DC965A"/>
<path d="M161.789 244.725L159.213 245.281C152.931 246.635 146.428 247.325 139.882 247.325C123.844 247.325 112.705 243.279 111.496 242.821C110.064 242.271 108.564 241.996 107.043 241.996C101.867 241.996 97.3159 245.109 95.4449 249.937C94.2449 253.033 94.031 256.556 95.661 259.447C101.732 270.22 118.404 274.573 139.99 274.573C144.581 274.573 149.187 274.308 153.686 273.791C156.437 273.473 159.326 272.998 162.271 272.377L164.081 271.902C164.081 271.902 161.492 264.053 160.941 256.08C160.729 253.043 161.789 244.725 161.789 244.725Z" fill="#FFF5EC"/>
</svg>
