<?xml version="1.0" encoding="utf-8"?>
<!-- Generator: Adobe Illustrator 16.0.0, SVG Export Plug-In . SVG Version: 6.00 Build 0)  -->
<!DOCTYPE svg PUBLIC "-//W3C//DTD SVG 1.1//EN" "http://www.w3.org/Graphics/SVG/1.1/DTD/svg11.dtd">
<svg version="1.1" id="Layer_1" xmlns="http://www.w3.org/2000/svg" xmlns:xlink="http://www.w3.org/1999/xlink" x="0px" y="0px"
	 width="121.667px" height="34.604px" viewBox="0 0 121.667 34.604" enable-background="new 0 0 121.667 34.604"
	 xml:space="preserve">
<g>
	<path fill="#FFFFFF" d="M27.403,31.434c0,0.727-0.276,1.366-0.829,1.917c-0.553,0.553-1.206,0.828-1.965,0.828
		c-0.788,0-1.515-0.331-2.177-0.994L6.663,18.411v12.786c0,0.915-0.277,1.657-0.828,2.225c-0.553,0.568-1.303,0.852-2.249,0.852
		c-0.917,0-1.651-0.284-2.202-0.852c-0.553-0.568-0.828-1.31-0.828-2.225V3.402c0-0.916,0.275-1.65,0.828-2.203
		c0.551-0.551,1.285-0.828,2.202-0.828c0.946,0,1.696,0.277,2.249,0.828c0.551,0.553,0.828,1.288,0.828,2.203v12.169L21.911,1.271
		c0.567-0.568,1.214-0.852,1.941-0.852c0.726,0,1.366,0.276,1.917,0.829C26.322,1.8,26.6,2.438,26.6,3.165s-0.316,1.389-0.948,1.988
		L12.913,16.802l13.543,12.595C27.086,29.999,27.403,30.677,27.403,31.434z"/>
	<path fill="#FFFFFF" d="M46.154,10.883c0.474,0.41,0.711,1.027,0.711,1.846c0,0.854-0.207,1.485-0.617,1.894
		c-0.411,0.413-1.152,0.68-2.226,0.805l-1.419,0.143c-1.864,0.188-3.228,0.821-4.097,1.894c-0.869,1.074-1.303,2.415-1.303,4.025
		v9.944c0,0.916-0.283,1.619-0.851,2.108c-0.569,0.487-1.278,0.732-2.131,0.732c-0.852,0-1.555-0.245-2.106-0.732
		c-0.552-0.49-0.83-1.193-0.83-2.108V13.108c0-0.884,0.278-1.563,0.83-2.036c0.552-0.474,1.237-0.709,2.06-0.709
		c0.819,0,1.481,0.229,1.988,0.686c0.505,0.459,0.758,1.112,0.758,1.965v1.894c0.599-1.389,1.491-2.462,2.676-3.22
		c1.183-0.759,2.5-1.185,3.953-1.279l0.663-0.046C45.035,10.299,45.682,10.473,46.154,10.883z"/>
	<path fill="#FFFFFF" d="M53.281,32.902c-1.784-0.979-3.166-2.383-4.143-4.216c-0.979-1.831-1.468-3.959-1.468-6.391
		s0.489-4.553,1.468-6.37c0.977-1.815,2.358-3.212,4.143-4.19c1.784-0.977,3.859-1.468,6.227-1.468c2.369,0,4.444,0.491,6.228,1.468
		c1.782,0.979,3.156,2.375,4.119,4.19c0.961,1.817,1.443,3.938,1.443,6.37s-0.482,4.561-1.443,6.391
		c-0.963,1.833-2.337,3.237-4.119,4.216c-1.784,0.979-3.859,1.468-6.228,1.468C57.141,34.371,55.065,33.881,53.281,32.902z
		 M63.865,27.883c1.009-1.262,1.515-3.125,1.515-5.588c0-2.432-0.505-4.285-1.515-5.564c-1.012-1.28-2.462-1.917-4.357-1.917
		c-1.894,0-3.354,0.637-4.379,1.917c-1.027,1.279-1.54,3.133-1.54,5.564c0,2.462,0.505,4.326,1.515,5.588
		c1.009,1.262,2.462,1.894,4.356,1.894C61.385,29.777,62.854,29.145,63.865,27.883z"/>
	<path fill="#FFFFFF" d="M95.449,31.766c0,0.696-0.22,1.239-0.663,1.634c-0.441,0.395-1.104,0.591-1.988,0.591H76.982
		c-0.79,0-1.438-0.252-1.942-0.757c-0.505-0.505-0.757-1.106-0.757-1.8c0-0.727,0.283-1.42,0.852-2.083l12.169-14.065H76.746
		c-0.884,0-1.547-0.188-1.989-0.566c-0.443-0.38-0.663-0.933-0.663-1.66c0-0.724,0.22-1.277,0.663-1.657
		c0.441-0.377,1.104-0.568,1.989-0.568h15.295c0.821,0,1.476,0.245,1.965,0.734c0.49,0.489,0.734,1.098,0.734,1.823
		c0,0.759-0.27,1.453-0.806,2.084L81.717,29.541h11.081C94.564,29.541,95.449,30.282,95.449,31.766z"/>
	<path fill="#FFFFFF" d="M103.428,32.902c-1.784-0.979-3.166-2.383-4.143-4.216c-0.979-1.831-1.468-3.959-1.468-6.391
		s0.489-4.553,1.468-6.37c0.977-1.815,2.358-3.212,4.143-4.19c1.784-0.977,3.859-1.468,6.228-1.468c2.368,0,4.443,0.491,6.227,1.468
		c1.782,0.979,3.156,2.375,4.12,4.19c0.961,1.817,1.443,3.938,1.443,6.37s-0.481,4.561-1.443,6.391
		c-0.963,1.833-2.337,3.237-4.12,4.216c-1.784,0.979-3.859,1.468-6.227,1.468C107.287,34.371,105.212,33.881,103.428,32.902z
		 M114.011,27.883c1.01-1.262,1.515-3.125,1.515-5.588c0-2.432-0.505-4.285-1.515-5.564c-1.011-1.28-2.462-1.917-4.356-1.917
		c-1.895,0-3.355,0.637-4.38,1.917c-1.027,1.279-1.54,3.133-1.54,5.564c0,2.462,0.505,4.326,1.515,5.588
		c1.01,1.262,2.462,1.894,4.356,1.894C111.532,29.777,113,29.145,114.011,27.883z"/>
</g>
</svg>
