<svg width="195" height="57" viewBox="0 0 195 57" fill="none" xmlns="http://www.w3.org/2000/svg">
<path d="M43.9198 50.9518C43.9198 52.117 43.4774 53.1412 42.5911 54.0243C41.7048 54.9106 40.6582 55.3514 39.4417 55.3514C38.1788 55.3514 37.0136 54.8209 35.9526 53.7582L10.679 30.0794V50.572C10.679 52.0385 10.2351 53.2277 9.35195 54.1381C8.46564 55.0484 7.26359 55.5036 5.7474 55.5036C4.27769 55.5036 3.10129 55.0484 2.21818 54.1381C1.33187 53.2277 0.891113 52.0385 0.891113 50.572V6.02397C0.891113 4.55586 1.33187 3.37945 2.21818 2.49314C3.10129 1.61003 4.27769 1.16608 5.7474 1.16608C7.26359 1.16608 8.46564 1.61003 9.35195 2.49314C10.2351 3.37945 10.679 4.55746 10.679 6.02397V25.5277L35.1175 2.60854C36.0263 1.69818 37.0632 1.24301 38.2284 1.24301C39.392 1.24301 40.4178 1.68536 41.3009 2.57168C42.1872 3.45639 42.6328 4.47893 42.6328 5.64412C42.6328 6.80931 42.1263 7.87032 41.1134 8.83036L20.6961 27.5006L42.402 47.6871C43.4117 48.6519 43.9198 49.7386 43.9198 50.9518Z" fill="#DC965A"/>
<path d="M73.9727 18.014C74.7324 18.6712 75.1122 19.66 75.1122 20.9727C75.1122 22.3414 74.7805 23.3527 74.1233 24.0083C73.4646 24.6702 72.277 25.0981 70.5556 25.2985L68.2814 25.5277C65.2939 25.829 63.1077 26.8435 61.715 28.5632C60.3222 30.2846 59.6266 32.4338 59.6266 35.0142V50.9518C59.6266 52.4199 59.173 53.5467 58.2627 54.3304C57.3507 55.1109 56.2144 55.5036 54.8472 55.5036C53.4817 55.5036 52.355 55.1109 51.4719 54.3304C50.5872 53.5451 50.1416 52.4183 50.1416 50.9518V21.5801C50.1416 20.1633 50.5872 19.075 51.4719 18.3169C52.3566 17.5572 53.4545 17.1806 54.7735 17.1806C56.0861 17.1806 57.1472 17.5476 57.9597 18.2801C58.7691 19.0157 59.1746 20.0623 59.1746 21.4295V24.465C60.1347 22.2388 61.5643 20.5191 63.4635 19.3042C65.3596 18.0878 67.4704 17.405 69.7991 17.2543L70.8618 17.1806C72.1792 17.078 73.2162 17.3569 73.9727 18.014Z" fill="#DC965A"/>
<path d="M85.3953 53.3046C82.536 51.7356 80.321 49.4853 78.7552 46.5475C77.1861 43.6129 76.4023 40.2023 76.4023 36.3044C76.4023 32.4066 77.1861 29.0072 78.7552 26.095C80.321 23.186 82.5344 20.947 85.3953 19.3795C88.2546 17.8137 91.5803 17.0267 95.3755 17.0267C99.1724 17.0267 102.498 17.8137 105.357 19.3795C108.213 20.9486 110.416 23.186 111.959 26.095C113.499 29.0072 114.272 32.4066 114.272 36.3044C114.272 40.2023 113.499 43.6145 111.959 46.5475C110.416 49.4853 108.213 51.7356 105.357 53.3046C102.498 54.8737 99.1724 55.6575 95.3755 55.6575C91.5819 55.6591 88.2546 54.8737 85.3953 53.3046ZM102.359 45.2605C103.976 43.2379 104.787 40.252 104.787 36.3044C104.787 32.4066 103.977 29.4367 102.359 27.3868C100.737 25.3353 98.4127 24.3144 95.3755 24.3144C92.34 24.3144 90 25.3353 88.3572 27.3868C86.7111 29.4367 85.8889 32.4082 85.8889 36.3044C85.8889 40.2504 86.6983 43.2379 88.3171 45.2605C89.9342 47.2832 92.263 48.2961 95.2986 48.2961C98.3839 48.2961 100.738 47.2832 102.359 45.2605Z" fill="#DC965A"/>
<path d="M152.98 51.484C152.98 52.5995 152.627 53.4697 151.917 54.1028C151.21 54.7359 150.148 55.05 148.731 55.05H123.382C122.116 55.05 121.077 54.6462 120.269 53.8368C119.46 53.0274 119.056 52.0641 119.056 50.9518C119.056 49.7867 119.51 48.676 120.422 47.6133L139.925 25.0709H123.004C121.587 25.0709 120.524 24.7696 119.816 24.1637C119.106 23.5547 118.753 22.6684 118.753 21.5032C118.753 20.3428 119.106 19.4565 119.816 18.8475C120.523 18.2432 121.585 17.9371 123.004 17.9371H147.517C148.833 17.9371 149.883 18.3298 150.667 19.1135C151.452 19.8972 151.843 20.8733 151.843 22.0353C151.843 23.2518 151.41 24.3641 150.551 25.3754L130.971 47.9179H148.731C151.561 47.9179 152.98 49.1055 152.98 51.484Z" fill="#DC965A"/>
<path d="M165.768 53.3046C162.908 51.7356 160.693 49.4853 159.127 46.5475C157.558 43.6129 156.775 40.2023 156.775 36.3044C156.775 32.4066 157.558 29.0072 159.127 26.095C160.693 23.186 162.907 20.947 165.768 19.3795C168.627 17.8137 171.953 17.0267 175.749 17.0267C179.545 17.0267 182.87 17.8137 185.73 19.3795C188.586 20.9486 190.788 23.186 192.333 26.095C193.873 29.0072 194.646 32.4066 194.646 36.3044C194.646 40.2023 193.875 43.6145 192.333 46.5475C190.789 49.4853 188.587 51.7356 185.73 53.3046C182.87 54.8737 179.545 55.6575 175.749 55.6575C171.953 55.6591 168.627 54.8737 165.768 53.3046ZM182.729 45.2605C184.348 43.2379 185.157 40.252 185.157 36.3044C185.157 32.4066 184.348 29.4367 182.729 27.3868C181.109 25.3353 178.783 24.3144 175.748 24.3144C172.711 24.3144 170.371 25.3353 168.728 27.3868C167.082 29.4367 166.26 32.4082 166.26 36.3044C166.26 40.2504 167.069 43.2379 168.688 45.2605C170.307 47.2832 172.634 48.2961 175.669 48.2961C178.756 48.2961 181.109 47.2832 182.729 45.2605Z" fill="#DC965A"/>
</svg>
